<svg xmlns="http://www.w3.org/2000/svg" xmlns:cc="http://web.resource.org/cc/" xmlns:svg="http://www.w3.org/2000/svg" xmlns:xlink="http://www.w3.org/1999/xlink" id="svg5490" width="48" height="48" version="1.0"><defs id="defs5492"><linearGradient id="linearGradient6786"><stop style="stop-color:#a9c5e3;stop-opacity:1" id="stop6788" offset="0"/><stop style="stop-color:#6697cb;stop-opacity:1" id="stop6790" offset="1"/></linearGradient><linearGradient id="linearGradient7039"><stop style="stop-color:#babdb6;stop-opacity:1" id="stop7041" offset="0"/><stop style="stop-color:#d9dad6;stop-opacity:1" id="stop7043" offset="1"/></linearGradient><linearGradient id="linearGradient7005"><stop style="stop-color:black;stop-opacity:1" id="stop7007" offset="0"/><stop style="stop-color:black;stop-opacity:0" id="stop7009" offset="1"/></linearGradient><linearGradient id="linearGradient6957"><stop style="stop-color:#555753;stop-opacity:1" id="stop6959" offset="0"/><stop style="stop-color:#555753;stop-opacity:0" id="stop6961" offset="1"/></linearGradient><linearGradient id="linearGradient6936"><stop style="stop-color:#888a85;stop-opacity:1" id="stop6938" offset="0"/><stop style="stop-color:#dedede;stop-opacity:1" id="stop6940" offset="1"/></linearGradient><linearGradient id="linearGradient6864"><stop style="stop-color:#777974;stop-opacity:1" id="stop6866" offset="0"/><stop style="stop-color:#394043;stop-opacity:1" id="stop6868" offset="1"/></linearGradient><linearGradient id="linearGradient6870" x1="-10.625" x2="-7.375" y1="-3.063" y2="-3.063" gradientUnits="userSpaceOnUse" xlink:href="#linearGradient6864"/><linearGradient id="linearGradient6934" x1="-10.625" x2="-7.375" y1="-3.063" y2="-3.063" gradientUnits="userSpaceOnUse" xlink:href="#linearGradient6864"/><radialGradient id="radialGradient6942" cx="21.771" cy="27.307" r="17" fx="21.771" fy="27.307" gradientTransform="matrix(1.939344,5.199315e-3,-3.154068e-3,1.176467,-12.17228,-4.302811)" gradientUnits="userSpaceOnUse" xlink:href="#linearGradient6936"/><linearGradient id="linearGradient6963" x1="17.464" x2="28.371" y1="19.713" y2="28.773" gradientUnits="userSpaceOnUse" xlink:href="#linearGradient6957"/><radialGradient id="radialGradient7011" cx="25.073" cy="43.121" r="15.91" fx="25.073" fy="43.121" gradientTransform="matrix(0.868778,-8.904868e-3,1.659211e-3,0.214718,3.218617,33.53771)" gradientUnits="userSpaceOnUse" xlink:href="#linearGradient7005"/><linearGradient id="linearGradient7063" x1="-10.625" x2="-7.375" y1="-3.063" y2="-3.063" gradientUnits="userSpaceOnUse" xlink:href="#linearGradient6864"/><linearGradient id="linearGradient7065" x1="-7.816" x2="-11.638" y1="19.838" y2="20.06" gradientUnits="userSpaceOnUse" xlink:href="#linearGradient7039"/><linearGradient id="linearGradient7083" x1="-10.625" x2="-7.375" y1="-3.063" y2="-3.063" gradientUnits="userSpaceOnUse" xlink:href="#linearGradient6864"/><linearGradient id="linearGradient7085" x1="-7.816" x2="-11.638" y1="19.838" y2="20.06" gradientUnits="userSpaceOnUse" xlink:href="#linearGradient7039"/><radialGradient id="radialGradient7154" cx="25.073" cy="43.121" r="15.91" fx="25.073" fy="43.121" gradientTransform="matrix(0.868778,-8.904868e-3,1.659211e-3,0.214718,3.218617,33.53771)" gradientUnits="userSpaceOnUse" xlink:href="#linearGradient7005"/><radialGradient id="radialGradient7156" cx="21.771" cy="27.307" r="17" fx="21.771" fy="27.307" gradientTransform="matrix(1.939344,5.199315e-3,-3.154068e-3,1.176467,-12.17228,-4.302811)" gradientUnits="userSpaceOnUse" xlink:href="#linearGradient6936"/><linearGradient id="linearGradient7158" x1="17.464" x2="28.371" y1="19.713" y2="28.773" gradientUnits="userSpaceOnUse" xlink:href="#linearGradient6957"/><linearGradient id="linearGradient5581" x1="-10.625" x2="-7.375" y1="-3.063" y2="-3.063" gradientUnits="userSpaceOnUse" xlink:href="#linearGradient6864"/><linearGradient id="linearGradient5583" x1="-7.816" x2="-11.638" y1="19.838" y2="20.06" gradientUnits="userSpaceOnUse" xlink:href="#linearGradient7039"/><radialGradient id="radialGradient6792" cx="19.438" cy="16.93" r="12" fx="19.438" fy="16.93" gradientTransform="matrix(1.260417,2.083328e-2,-2.065829e-2,1.249829,-4.400381,-6.377293)" gradientUnits="userSpaceOnUse" xlink:href="#linearGradient6786"/></defs><metadata id="metadata5495"/><g id="layer1" style="opacity:1;display:inline"><g id="g7143" transform="translate(2.999981,0)"><path id="path7003" d="M 40.835417 42.431534 A 15.909903 3.2703688 0 1 1 9.0156116,42.431534 A 15.909903 3.2703688 0 1 1 40.835417 42.431534 z" transform="matrix(0.879955,0,0,0.764443,2.066672,10.06352)" style="opacity:.5;fill:url(#radialGradient7154);fill-opacity:1;stroke:none;stroke-width:1;stroke-linecap:round;stroke-linejoin:miter;stroke-miterlimit:4;stroke-dasharray:none;stroke-opacity:1"/><path id="path5512" d="M 23.883309,43.500026 C 23.883309,43.500026 15.879729,37.975355 11.575613,28.535268 C 7.2714953,19.095178 7.5021652,5.7396748 7.5021652,5.7396748 C 7.5021652,5.7396748 15.47319,4.5000046 23.722654,4.5000046 C 31.972114,4.5000046 40.500018,6.0351456 40.500018,6.0351456 C 40.500018,6.0351456 40.443667,18.955798 36.498319,28.395887 C 32.552972,37.835975 23.883309,43.500026 23.883309,43.500026 z" style="fill:url(#radialGradient7156);fill-opacity:1;fill-rule:evenodd;stroke:#555753;stroke-width:1.00000143px;stroke-linecap:butt;stroke-linejoin:miter;stroke-opacity:1"/><path id="path6721" d="M 23.889342,42.062518 C 23.889342,42.062518 16.55456,36.995252 12.511042,28.085964 C 8.4675195,19.176673 8.5000072,6.6699677 8.5000072,6.6699677 C 8.5000072,6.6699677 15.988419,5.500002 23.73841,5.500002 C 31.488402,5.500002 39.499972,6.9635008 39.499972,6.9635008 C 39.499972,6.9635008 39.262816,19.142974 35.556343,28.052264 C 31.849872,36.961556 23.889342,42.062518 23.889342,42.062518 z" style="opacity:.5;fill:none;fill-opacity:1;fill-rule:evenodd;stroke:#fff;stroke-width:1.00000036px;stroke-linecap:butt;stroke-linejoin:miter;stroke-opacity:1"/><path id="path6904" d="M 23.918667,38.499996 C 23.918667,38.499996 18.34042,34.39191 15.340583,27.372364 C 12.340745,20.352816 12.501514,10.421809 12.501514,10.421809 C 12.501514,10.421809 18.057075,9.5000039 23.806697,9.5000039 C 29.556318,9.5000039 35.500004,10.552945 35.500004,10.552945 C 35.500004,10.552945 35.46073,20.249175 32.710943,27.268722 C 29.961157,34.288269 23.918667,38.499996 23.918667,38.499996 z" style="opacity:.97282607;fill:url(#radialGradient6792);fill-opacity:1;fill-rule:evenodd;stroke:#555753;stroke-width:1.00000167px;stroke-linecap:butt;stroke-linejoin:miter;stroke-opacity:1"/><path id="path6944" d="M 25.455844 9.0649328 A 2.1876116 2.8726213 0 1 1 21.080621,9.0649328 A 2.1876116 2.8726213 0 1 1 25.455844 9.0649328 z" transform="matrix(0.457116,0,0,0.348114,13.36371,3.844375)" style="opacity:.97282607;fill:#888a85;fill-opacity:1;stroke:none;stroke-width:1.67121816;stroke-linecap:round;stroke-linejoin:miter;stroke-miterlimit:4;stroke-dasharray:none;stroke-opacity:1"/><path id="path6951" d="M 25.455844 9.0649328 A 2.1876116 2.8726213 0 1 1 21.080621,9.0649328 A 2.1876116 2.8726213 0 1 1 25.455844 9.0649328 z" transform="matrix(0.457116,0,0,0.348114,-0.636274,4.84437)" style="opacity:.97282607;fill:#888a85;fill-opacity:1;stroke:none;stroke-width:1.67121816;stroke-linecap:round;stroke-linejoin:miter;stroke-miterlimit:4;stroke-dasharray:none;stroke-opacity:1;display:inline"/><path id="path6953" d="M 25.455844 9.0649328 A 2.1876116 2.8726213 0 1 1 21.080621,9.0649328 A 2.1876116 2.8726213 0 1 1 25.455844 9.0649328 z" transform="matrix(0.457116,0,0,0.348114,27.36371,4.84437)" style="opacity:.97282607;fill:#888a85;fill-opacity:1;stroke:none;stroke-width:1.67121816;stroke-linecap:round;stroke-linejoin:miter;stroke-miterlimit:4;stroke-dasharray:none;stroke-opacity:1;display:inline"/><path id="path7001" d="M 13.816534,29.225058 L 29.860728,39.095971 L 31.199524,37.40533 L 14.037504,27.40533 L 13.816534,29.225058 z" style="opacity:.11956524;fill:#000;fill-opacity:1;fill-rule:evenodd;stroke:none;stroke-width:1px;stroke-linecap:butt;stroke-linejoin:miter;stroke-opacity:1"/><path id="path6955" d="M 23.925747,37.500012 C 23.925747,37.500012 18.832561,33.67524 16.093577,27.139797 C 13.354592,20.604352 13.501381,11.358237 13.501381,11.358237 C 13.501381,11.358237 18.573855,10.500004 23.823514,10.500004 C 29.073173,10.500004 34.500021,11.480329 34.500021,11.480329 C 34.500021,11.480329 34.464162,20.507859 31.953485,27.043303 C 29.442808,33.578747 23.925747,37.500012 23.925747,37.500012 z" style="opacity:.11956524;fill:none;fill-opacity:1;fill-rule:evenodd;stroke:url(#linearGradient7158);stroke-width:1.00000215px;stroke-linecap:butt;stroke-linejoin:miter;stroke-opacity:1;display:inline"/></g></g><g id="layer2" style="display:inline"><g style="opacity:1;display:inline" id="g5553" transform="matrix(-0.5,0.866025,0.866025,0.5,7.956453,28.66783)"><rect id="rect5555" width="8" height="13.132" x="-12.5" y="-10.5" rx="1.503" ry="1.503" style="opacity:1;fill:url(#linearGradient5581);fill-opacity:1;stroke:#2e3436;stroke-width:.99999946;stroke-linecap:round;stroke-linejoin:miter;stroke-miterlimit:4;stroke-dasharray:none;stroke-opacity:1"/><path id="path5557" d="M -12.437502,3.5381368 L -4.4999994,3.5381368 L -4.4999994,34.369998 L -8.5000006,39.598795 L -12.437502,34.369998 L -12.437502,3.5381368 z" style="opacity:1;fill:url(#linearGradient5583);fill-opacity:1;stroke:#555753;stroke-width:1;stroke-linecap:round;stroke-linejoin:miter;stroke-miterlimit:4;stroke-opacity:1"/><path id="path5559" d="M -11.500004,4.5625013 L -5.4375001,4.5625013 L -5.4375001,33.831319 L -8.5000019,37.499985 L -11.500004,33.831319 L -11.500004,4.5625013 z" style="opacity:.5;fill:none;fill-opacity:1;stroke:#fff;stroke-width:.99999958;stroke-linecap:round;stroke-linejoin:miter;stroke-miterlimit:4;stroke-opacity:1"/><rect id="rect5561" width="6" height="11.132" x="-11.5" y="-9.632" rx=".619" ry=".619" style="opacity:.3;fill:none;fill-opacity:1;stroke:#fff;stroke-width:.99999958;stroke-linecap:round;stroke-linejoin:miter;stroke-miterlimit:4;stroke-dasharray:none;stroke-opacity:1"/><path id="path5563" d="M -18.380337,-0.50000006 L 1.3119647,-0.50000006 L 3.4999987,6.444154 L -3.6111108,4.5429409 L -13.457261,4.5429409 L -20.499995,6.444154 L -18.380337,-0.50000006 z" style="fill:#babdb6;fill-opacity:1;stroke:#555753;stroke-width:.99999988;stroke-linecap:round;stroke-linejoin:miter;stroke-miterlimit:4;stroke-opacity:1"/><path id="path5565" d="M -17.7663,0.50000002 L 0.55961215,0.50000002 L 1.9375005,4.937501 L -3.5740518,3.513149 L -13.494846,3.513149 L -18.937504,4.937501 L -17.7663,0.50000002 z" style="opacity:.4;fill:none;fill-opacity:1;stroke:#fff;stroke-width:1.00000012;stroke-linecap:round;stroke-linejoin:miter;stroke-miterlimit:4;stroke-opacity:1"/><rect id="rect5567" width="1" height="30" x="-9" y="7" rx="0" ry="0" style="opacity:.14673911;fill:#000;fill-opacity:1;stroke:none;stroke-width:1;stroke-linecap:round;stroke-linejoin:miter;stroke-miterlimit:4;stroke-dasharray:none;stroke-opacity:1"/></g></g></svg>