<svg xmlns="http://www.w3.org/2000/svg" xmlns:cc="http://web.resource.org/cc/" xmlns:svg="http://www.w3.org/2000/svg" xmlns:xlink="http://www.w3.org/1999/xlink" id="svg5490" width="32" height="32" version="1.0"><defs id="defs5492"><linearGradient id="linearGradient5531"><stop style="stop-color:#96b8dc;stop-opacity:1" id="stop5533" offset="0"/><stop style="stop-color:#5b90c8;stop-opacity:1" id="stop5535" offset="1"/></linearGradient><linearGradient id="linearGradient7039"><stop style="stop-color:#babdb6;stop-opacity:1" id="stop7041" offset="0"/><stop style="stop-color:#d9dad6;stop-opacity:1" id="stop7043" offset="1"/></linearGradient><linearGradient id="linearGradient7005"><stop style="stop-color:black;stop-opacity:1" id="stop7007" offset="0"/><stop style="stop-color:black;stop-opacity:0" id="stop7009" offset="1"/></linearGradient><linearGradient id="linearGradient6957"><stop style="stop-color:#555753;stop-opacity:1" id="stop6959" offset="0"/><stop style="stop-color:#555753;stop-opacity:0" id="stop6961" offset="1"/></linearGradient><linearGradient id="linearGradient6936"><stop style="stop-color:#888a85;stop-opacity:1" id="stop6938" offset="0"/><stop style="stop-color:#dedede;stop-opacity:1" id="stop6940" offset="1"/></linearGradient><linearGradient id="linearGradient6864"><stop style="stop-color:#777974;stop-opacity:1" id="stop6866" offset="0"/><stop style="stop-color:#394043;stop-opacity:1" id="stop6868" offset="1"/></linearGradient><linearGradient id="linearGradient6934" x1="-10.625" x2="-7.375" y1="-3.063" y2="-3.063" gradientUnits="userSpaceOnUse" xlink:href="#linearGradient6864"/><radialGradient id="radialGradient6942" cx="21.771" cy="27.307" r="17" fx="21.771" fy="27.307" gradientTransform="matrix(1.939344,5.199315e-3,-3.154068e-3,1.176467,-12.17228,-4.302811)" gradientUnits="userSpaceOnUse" xlink:href="#linearGradient6936"/><linearGradient id="linearGradient6963" x1="17.464" x2="28.371" y1="19.713" y2="28.773" gradientUnits="userSpaceOnUse" xlink:href="#linearGradient6957"/><radialGradient id="radialGradient7011" cx="25.073" cy="43.121" r="15.91" fx="25.073" fy="43.121" gradientTransform="matrix(0.868778,-8.904868e-3,1.659211e-3,0.214718,3.218617,33.53771)" gradientUnits="userSpaceOnUse" xlink:href="#linearGradient7005"/><linearGradient id="linearGradient7063" x1="-10.625" x2="-7.375" y1="-3.063" y2="-3.063" gradientUnits="userSpaceOnUse" xlink:href="#linearGradient6864"/><linearGradient id="linearGradient7065" x1="-7.816" x2="-11.638" y1="19.838" y2="20.06" gradientUnits="userSpaceOnUse" xlink:href="#linearGradient7039"/><linearGradient id="linearGradient7083" x1="-10.625" x2="-7.375" y1="-3.063" y2="-3.063" gradientUnits="userSpaceOnUse" xlink:href="#linearGradient6864"/><linearGradient id="linearGradient7085" x1="-7.816" x2="-11.638" y1="19.838" y2="20.06" gradientUnits="userSpaceOnUse" xlink:href="#linearGradient7039"/><radialGradient id="radialGradient7154" cx="25.073" cy="43.121" r="15.91" fx="25.073" fy="43.121" gradientTransform="matrix(0.868778,-8.904868e-3,1.659211e-3,0.214718,3.218617,33.53771)" gradientUnits="userSpaceOnUse" xlink:href="#linearGradient7005"/><linearGradient id="linearGradient5545" x1="17.464" x2="28.371" y1="19.713" y2="28.773" gradientTransform="matrix(0.619047,0,0,0.672316,3.142854,0.288141)" gradientUnits="userSpaceOnUse" xlink:href="#linearGradient6957"/><radialGradient id="radialGradient5554" cx="21.771" cy="27.307" r="17" fx="21.771" fy="27.307" gradientTransform="matrix(1.351999,3.599523e-3,-2.198836e-3,0.814477,-7.214388,-3.594251)" gradientUnits="userSpaceOnUse" xlink:href="#linearGradient6936"/><linearGradient id="linearGradient5573" x1="-10.625" x2="-7.375" y1="-3.063" y2="-3.063" gradientTransform="matrix(0.929622,0,0,1.019412,4.464897e-2,0.203824)" gradientUnits="userSpaceOnUse" xlink:href="#linearGradient6864"/><linearGradient id="linearGradient5575" x1="-7.816" x2="-11.638" y1="19.838" y2="20.06" gradientTransform="matrix(0.936942,1.241019e-8,1.24102e-8,1,7.758897e-2,-1.526972e-8)" gradientUnits="userSpaceOnUse" xlink:href="#linearGradient7039"/><radialGradient id="radialGradient5537" cx="14.938" cy="12.266" r="8" fx="14.938" fy="12.266" gradientTransform="matrix(1.687501,1.562503e-2,-1.129074e-2,1.219399,-10.13106,-3.690347)" gradientUnits="userSpaceOnUse" xlink:href="#linearGradient5531"/></defs><metadata id="metadata5495"/><g id="layer1" style="opacity:1;display:inline"><path style="opacity:.5;fill:url(#radialGradient7154);fill-opacity:1;stroke:none;stroke-width:1;stroke-linecap:round;stroke-linejoin:miter;stroke-miterlimit:4;stroke-dasharray:none;stroke-opacity:1" id="path7003" d="M 40.835417 42.431534 A 15.909903 3.2703688 0 1 1 9.0156116,42.431534 A 15.909903 3.2703688 0 1 1 40.835417 42.431534 z" transform="matrix(0.628539,0,0,0.611552,2.333338,3.05092)"/><path style="fill:url(#radialGradient5554);fill-opacity:1;fill-rule:evenodd;stroke:#555753;stroke-width:1.00000072px;stroke-linecap:butt;stroke-linejoin:miter;stroke-opacity:1" id="path5512" d="M 17.921504,29.499988 C 17.921504,29.499988 12.341866,25.67522 9.3412826,19.139782 C 6.3406984,12.604341 6.5015082,3.3582325 6.5015082,3.3582325 C 6.5015082,3.3582325 12.058451,2.5000001 17.809504,2.5000001 C 23.560555,2.5000001 29.505721,3.5627889 29.505721,3.5627889 C 29.505721,3.5627889 29.466437,12.507848 26.715966,19.043287 C 23.965496,25.578726 17.921504,29.499988 17.921504,29.499988 z"/><path style="opacity:.34239131;fill:none;fill-opacity:1;fill-rule:evenodd;stroke:#fff;stroke-width:.99999952px;stroke-linecap:butt;stroke-linejoin:miter;stroke-opacity:1" id="path6721" d="M 17.925047,28.062499 C 17.925047,28.062499 12.956321,24.650507 10.21716,18.651531 C 7.4779987,12.652552 7.5000065,4.2312917 7.5000065,4.2312917 C 7.5000065,4.2312917 12.572804,3.4435073 17.822801,3.4435073 C 23.072799,3.4435073 28.499993,4.4289392 28.499993,4.4289392 C 28.499993,4.4289392 28.33934,12.629861 25.828503,18.628839 C 23.317665,24.627818 17.925047,28.062499 17.925047,28.062499 z"/><path style="opacity:.97282607;fill:url(#radialGradient5537);fill-opacity:1;fill-rule:evenodd;stroke:#555753;stroke-width:1.00000048px;stroke-linecap:butt;stroke-linejoin:miter;stroke-opacity:1" id="path6904" d="M 17.946943,25.011209 C 17.946943,25.011209 14.308958,22.388945 12.352543,17.908244 C 10.396127,13.427542 10.500977,7.0884039 10.500977,7.0884039 C 10.500977,7.0884039 14.124168,6.4999993 17.873919,6.4999993 C 21.62367,6.4999993 25.499984,7.1721104 25.499984,7.1721104 C 25.499984,7.1721104 25.474371,13.361386 23.681033,17.842088 C 21.887695,22.32279 17.946943,25.011209 17.946943,25.011209 z"/><path style="opacity:.97282607;fill:#888a85;fill-opacity:1;stroke:none;stroke-width:1.67121816;stroke-linecap:round;stroke-linejoin:miter;stroke-miterlimit:4;stroke-dasharray:none;stroke-opacity:1" id="path6944" d="M 25.455844 9.0649328 A 2.1876116 2.8726213 0 1 1 21.080621,9.0649328 A 2.1876116 2.8726213 0 1 1 25.455844 9.0649328 z" transform="matrix(0.457122,0,0,0.348114,7.363584,0.84437)"/><path style="opacity:.97282607;fill:#888a85;fill-opacity:1;stroke:none;stroke-width:1.67121816;stroke-linecap:round;stroke-linejoin:miter;stroke-miterlimit:4;stroke-dasharray:none;stroke-opacity:1;display:inline" id="path6951" d="M 25.455844 9.0649328 A 2.1876116 2.8726213 0 1 1 21.080621,9.0649328 A 2.1876116 2.8726213 0 1 1 25.455844 9.0649328 z" transform="matrix(0.45712,0,0,0.348114,-1.636373,1.84437)"/><path style="opacity:.97282607;fill:#888a85;fill-opacity:1;stroke:none;stroke-width:1.67121816;stroke-linecap:round;stroke-linejoin:miter;stroke-miterlimit:4;stroke-dasharray:none;stroke-opacity:1;display:inline" id="path6953" d="M 25.455844 9.0649328 A 2.1876116 2.8726213 0 1 1 21.080621,9.0649328 A 2.1876116 2.8726213 0 1 1 25.455844 9.0649328 z" transform="matrix(0.45712,0,0,0.348114,16.36362,1.844369)"/><path style="opacity:.11956524;fill:#000;fill-opacity:1;fill-rule:evenodd;stroke:none;stroke-width:1px;stroke-linecap:butt;stroke-linejoin:miter;stroke-opacity:1" id="path7001" d="M 9.4696699,19.407821 L 21.856647,26.972272 L 22.923223,25.65885 L 9.7491144,18.051807 L 9.4696699,19.407821 z"/><path style="opacity:.11956524;fill:none;fill-opacity:1;fill-rule:evenodd;stroke:url(#linearGradient5545);stroke-width:1.00000083px;stroke-linecap:butt;stroke-linejoin:miter;stroke-opacity:1;display:inline" id="path6955" d="M 17.954024,25.499999 C 17.954024,25.499999 14.801101,22.928544 13.10554,18.534661 C 11.409979,14.140777 11.500848,7.9244659 11.500848,7.9244659 C 11.500848,7.9244659 14.640949,7.3474621 17.890737,7.3474621 C 21.140524,7.3474621 24.5,8.0065503 24.5,8.0065503 C 24.5,8.0065503 24.477801,14.075903 22.923574,18.469786 C 21.369346,22.86367 17.954024,25.499999 17.954024,25.499999 z"/><g style="opacity:1;display:inline" id="g5557" transform="matrix(-0.336158,0.582243,0.582243,0.336158,5.673633,18.35595)"><rect id="rect5559" width="7.437" height="13.387" x="-11.576" y="-10.5" rx="2.235" ry="2.235" style="opacity:1;fill:url(#linearGradient5573);fill-opacity:1;stroke:#2e3436;stroke-width:1.48739374;stroke-linecap:round;stroke-linejoin:miter;stroke-miterlimit:4;stroke-dasharray:none;stroke-opacity:1"/><path id="path5561" d="M -11.575625,3.5381366 L -4.1386479,3.5381367 L -4.1386475,34.369998 L -7.8864153,39.598795 L -11.575624,34.369998 L -11.575625,3.5381366 z" style="opacity:1;fill:url(#linearGradient5575);fill-opacity:1;stroke:#555753;stroke-width:1.48739481;stroke-linecap:round;stroke-linejoin:miter;stroke-miterlimit:4;stroke-opacity:1"/><path id="path5563" d="M -10.088233,4.3739566 L -5.6260449,4.3739569 L -5.6260437,33.451914 L -7.8801383,37.096656 L -10.088232,33.451914 L -10.088233,4.3739566 z" style="opacity:.5;fill:none;fill-opacity:1;stroke:#fff;stroke-width:1.48739421;stroke-linecap:round;stroke-linejoin:miter;stroke-miterlimit:4;stroke-opacity:1"/><rect id="rect5565" width="4.588" height="10.513" x="-10.088" y="-9.013" rx=".92" ry=".92" style="opacity:.3;fill:none;fill-opacity:1;stroke:#fff;stroke-width:1.48739409;stroke-linecap:round;stroke-linejoin:miter;stroke-miterlimit:4;stroke-dasharray:none;stroke-opacity:1"/><path id="path5567" d="M -17.953546,-1.5756237 L 2.0106164,-1.5756232 L 4.7857292,6.4441525 L -3.0717864,4.3878924 L -12.818937,4.3878921 L -20.500001,6.4441521 L -17.953546,-1.5756237 z" style="fill:#babdb6;fill-opacity:1;stroke:#555753;stroke-width:1.48739433;stroke-linecap:round;stroke-linejoin:miter;stroke-miterlimit:4;stroke-opacity:1"/><path id="path5569" d="M -16.868975,-0.088228644 L 1.0880221,-0.088228555 L 2.5546336,4.1880344 L -2.8311081,2.8952019 L -13.123652,2.8952019 L -18.222419,4.1415533 L -16.868975,-0.088228644 z" style="opacity:.4;fill:none;fill-opacity:1;stroke:#fff;stroke-width:1.48739445;stroke-linecap:round;stroke-linejoin:miter;stroke-miterlimit:4;stroke-opacity:1"/></g></g></svg>